<svg width="317" height="1568" viewBox="0 0 317 1568" fill="none" xmlns="http://www.w3.org/2000/svg">
<path id="Rectangle" d="M7.85627 1589.46C8.15125 1589 8.46335 1588.52 8.79255 1588.01C11.7224 1583.49 15.9941 1576.84 21.3692 1568.29C32.1191 1551.19 47.2842 1526.51 64.9575 1496.14C100.299 1435.41 145.696 1351.9 185.878 1260.87C226.045 1169.87 261.08 1071.17 275.581 980.072C290.065 889.084 284.183 804.928 241.56 743.736C217.26 708.85 191.53 676.706 166.642 645.633L166.347 645.264C141.535 614.286 117.59 584.391 96.561 553.726C54.3851 492.224 24.1429 427.916 22.7242 346.637C21.1436 256.087 56.3426 189.513 97.9552 116.867C100.431 112.545 102.929 108.201 105.443 103.831C145.147 34.8035 188.728 -40.964 209.528 -147.715C230.899 -257.396 202.505 -375.401 169.025 -465.665C152.262 -510.856 134.175 -549.226 120.277 -576.301C113.327 -589.841 107.421 -600.563 103.248 -607.907C102.077 -609.969 101.042 -611.764 100.159 -613.282L1110.96 -630.925L964.311 1695.49L7.85627 1589.46Z" stroke="url(#paint0_linear_0_943)" stroke-width="8"/>
<defs>
<linearGradient id="paint0_linear_0_943" x1="-567.21" y1="502.842" x2="631.024" y2="1914.32" gradientUnits="userSpaceOnUse">
<stop stop-color="#E91E63"/>
<stop offset="1" stop-color="#304FFE"/>
</linearGradient>
</defs>
</svg>
