<svg width="28" height="43" viewBox="0 0 28 43" fill="none" xmlns="http://www.w3.org/2000/svg">
<path fill-rule="evenodd" clip-rule="evenodd" d="M20.9324 2.03141C22.2202 3.10373 24.9153 5.35921 24.9153 9.65081C24.9153 13.8271 22.5595 15.8023 20.2038 17.6624C19.4718 18.3971 18.6311 19.1862 18.6311 20.4284C18.6311 21.6704 19.4717 22.3491 20.0891 22.8551L22.1088 24.4349C24.5794 26.5223 26.8236 28.4432 26.8236 32.336C26.8236 37.6408 21.7156 43 12.0638 43C3.92658 43 0 39.1069 0 34.9307C0 32.8995 1.01075 30.023 4.32126 28.0462C7.79772 25.9027 12.5157 25.6211 15.0381 25.4514C14.2533 24.4349 13.3564 23.3608 13.3564 21.6144C13.3564 20.654 13.6359 20.0905 13.9161 19.4135C13.2986 19.4695 12.6826 19.5255 12.1209 19.5255C6.17254 19.5255 2.80453 15.0675 2.80453 10.6671C2.80453 8.07079 3.98551 5.19113 6.39666 3.10373C9.59664 0.451388 13.4137 0 16.4411 0H28L24.409 2.03141H20.9324ZM16.9262 27.0578C16.477 27 16.2004 27 15.6456 27C15.143 27 12.1332 27.1155 9.79353 27.928C8.56653 28.3944 5 29.787 5 33.9135C5 38.0386 8.8431 41 14.8093 41C20.1606 41 23 38.3304 23 34.7278C23.0001 31.7628 21.1627 30.1956 16.9262 27.0578ZM18.6227 16.4268C19.8906 15.1356 20 13.3381 20 12.3287C20 8.28753 17.6316 2 13.065 2C11.6345 2 10.092 2.72923 9.21005 3.85332C8.27474 5.03321 8 6.54748 8 8.00583C8 11.7666 10.1453 18 14.8806 18C16.256 17.9999 17.739 17.325 18.6227 16.4268Z" fill="white"/>
</svg>
